<svg xmlns="http://www.w3.org/2000/svg" viewBox="0 0 760 400" width="24" height="16">
  <rect width="760" height="400" fill="#B22234"/>
  <rect y="30.77" width="760" height="30.77" fill="#FFFFFF"/>
  <rect y="92.31" width="760" height="30.77" fill="#FFFFFF"/>
  <rect y="153.85" width="760" height="30.77" fill="#FFFFFF"/>
  <rect y="215.38" width="760" height="30.77" fill="#FFFFFF"/>
  <rect y="276.92" width="760" height="30.77" fill="#FFFFFF"/>
  <rect y="338.46" width="760" height="30.77" fill="#FFFFFF"/>
  <rect width="304" height="215.38" fill="#3C3B6E"/>
  <g fill="#FFFFFF">
    <g transform="translate(19,15.38)">
      <g>
        <polygon points="8,0 9.85,6.15 16,6.15 11.08,9.85 12.92,16 8,12.31 3.08,16 4.92,9.85 0,6.15 6.15,6.15"/>
        <polygon transform="translate(38,0)" points="8,0 9.85,6.15 16,6.15 11.08,9.85 12.92,16 8,12.31 3.08,16 4.92,9.85 0,6.15 6.15,6.15"/>
        <polygon transform="translate(76,0)" points="8,0 9.85,6.15 16,6.15 11.08,9.85 12.92,16 8,12.31 3.08,16 4.92,9.85 0,6.15 6.15,6.15"/>
        <polygon transform="translate(114,0)" points="8,0 9.85,6.15 16,6.15 11.08,9.85 12.92,16 8,12.31 3.08,16 4.92,9.85 0,6.15 6.15,6.15"/>
        <polygon transform="translate(152,0)" points="8,0 9.85,6.15 16,6.15 11.08,9.85 12.92,16 8,12.31 3.08,16 4.92,9.85 0,6.15 6.15,6.15"/>
        <polygon transform="translate(190,0)" points="8,0 9.85,6.15 16,6.15 11.08,9.85 12.92,16 8,12.31 3.08,16 4.92,9.85 0,6.15 6.15,6.15"/>
        <polygon transform="translate(228,0)" points="8,0 9.85,6.15 16,6.15 11.08,9.85 12.92,16 8,12.31 3.08,16 4.92,9.85 0,6.15 6.15,6.15"/>
        <polygon transform="translate(266,0)" points="8,0 9.85,6.15 16,6.15 11.08,9.85 12.92,16 8,12.31 3.08,16 4.92,9.85 0,6.15 6.15,6.15"/>
      </g>
      <g transform="translate(19,23.08)">
        <polygon points="8,0 9.85,6.15 16,6.15 11.08,9.85 12.92,16 8,12.31 3.08,16 4.92,9.85 0,6.15 6.15,6.15"/>
        <polygon transform="translate(38,0)" points="8,0 9.85,6.15 16,6.15 11.08,9.85 12.92,16 8,12.31 3.08,16 4.92,9.85 0,6.15 6.15,6.15"/>
        <polygon transform="translate(76,0)" points="8,0 9.85,6.15 16,6.15 11.08,9.85 12.92,16 8,12.31 3.08,16 4.92,9.85 0,6.15 6.15,6.15"/>
        <polygon transform="translate(114,0)" points="8,0 9.85,6.15 16,6.15 11.08,9.85 12.92,16 8,12.31 3.08,16 4.92,9.85 0,6.15 6.15,6.15"/>
        <polygon transform="translate(152,0)" points="8,0 9.85,6.15 16,6.15 11.08,9.85 12.92,16 8,12.31 3.08,16 4.92,9.85 0,6.15 6.15,6.15"/>
        <polygon transform="translate(190,0)" points="8,0 9.85,6.15 16,6.15 11.08,9.85 12.92,16 8,12.31 3.08,16 4.92,9.85 0,6.15 6.15,6.15"/>
        <polygon transform="translate(228,0)" points="8,0 9.85,6.15 16,6.15 11.08,9.85 12.92,16 8,12.31 3.08,16 4.92,9.85 0,6.15 6.15,6.15"/>
      </g>
      <g transform="translate(0,46.15)">
        <polygon points="8,0 9.85,6.15 16,6.15 11.08,9.85 12.92,16 8,12.31 3.08,16 4.92,9.85 0,6.15 6.15,6.15"/>
        <polygon transform="translate(38,0)" points="8,0 9.85,6.15 16,6.15 11.08,9.85 12.92,16 8,12.31 3.08,16 4.92,9.85 0,6.15 6.15,6.15"/>
        <polygon transform="translate(76,0)" points="8,0 9.85,6.15 16,6.15 11.08,9.85 12.92,16 8,12.31 3.08,16 4.92,9.85 0,6.15 6.15,6.15"/>
        <polygon transform="translate(114,0)" points="8,0 9.85,6.15 16,6.15 11.08,9.85 12.92,16 8,12.31 3.08,16 4.92,9.85 0,6.15 6.15,6.15"/>
        <polygon transform="translate(152,0)" points="8,0 9.85,6.15 16,6.15 11.08,9.85 12.92,16 8,12.31 3.08,16 4.92,9.85 0,6.15 6.15,6.15"/>
        <polygon transform="translate(190,0)" points="8,0 9.85,6.15 16,6.15 11.08,9.85 12.92,16 8,12.31 3.08,16 4.92,9.85 0,6.15 6.15,6.15"/>
        <polygon transform="translate(228,0)" points="8,0 9.85,6.15 16,6.15 11.08,9.85 12.92,16 8,12.31 3.08,16 4.92,9.85 0,6.15 6.15,6.15"/>
        <polygon transform="translate(266,0)" points="8,0 9.85,6.15 16,6.15 11.08,9.85 12.92,16 8,12.31 3.08,16 4.92,9.85 0,6.15 6.15,6.15"/>
      </g>
      <g transform="translate(19,69.23)">
        <polygon points="8,0 9.85,6.15 16,6.15 11.08,9.85 12.92,16 8,12.31 3.08,16 4.92,9.85 0,6.15 6.15,6.15"/>
        <polygon transform="translate(38,0)" points="8,0 9.85,6.15 16,6.15 11.08,9.85 12.92,16 8,12.31 3.08,16 4.92,9.85 0,6.15 6.15,6.15"/>
        <polygon transform="translate(76,0)" points="8,0 9.85,6.15 16,6.15 11.08,9.85 12.92,16 8,12.31 3.08,16 4.92,9.85 0,6.15 6.15,6.15"/>
        <polygon transform="translate(114,0)" points="8,0 9.85,6.15 16,6.15 11.08,9.85 12.92,16 8,12.31 3.08,16 4.92,9.85 0,6.15 6.15,6.15"/>
        <polygon transform="translate(152,0)" points="8,0 9.85,6.15 16,6.15 11.08,9.85 12.92,16 8,12.31 3.08,16 4.92,9.85 0,6.15 6.15,6.15"/>
        <polygon transform="translate(190,0)" points="8,0 9.85,6.15 16,6.15 11.08,9.85 12.92,16 8,12.31 3.08,16 4.92,9.85 0,6.15 6.15,6.15"/>
        <polygon transform="translate(228,0)" points="8,0 9.85,6.15 16,6.15 11.08,9.85 12.92,16 8,12.31 3.08,16 4.92,9.85 0,6.15 6.15,6.15"/>
      </g>
      <g transform="translate(0,92.31)">
        <polygon points="8,0 9.85,6.15 16,6.15 11.08,9.85 12.92,16 8,12.31 3.08,16 4.92,9.85 0,6.15 6.15,6.15"/>
        <polygon transform="translate(38,0)" points="8,0 9.85,6.15 16,6.15 11.08,9.85 12.92,16 8,12.31 3.08,16 4.92,9.85 0,6.15 6.15,6.15"/>
        <polygon transform="translate(76,0)" points="8,0 9.85,6.15 16,6.15 11.08,9.85 12.92,16 8,12.31 3.08,16 4.92,9.85 0,6.15 6.15,6.15"/>
        <polygon transform="translate(114,0)" points="8,0 9.85,6.15 16,6.15 11.08,9.85 12.92,16 8,12.31 3.08,16 4.92,9.85 0,6.15 6.15,6.15"/>
        <polygon transform="translate(152,0)" points="8,0 9.85,6.15 16,6.15 11.08,9.85 12.92,16 8,12.31 3.08,16 4.92,9.85 0,6.15 6.15,6.15"/>
        <polygon transform="translate(190,0)" points="8,0 9.85,6.15 16,6.15 11.08,9.85 12.92,16 8,12.31 3.08,16 4.92,9.85 0,6.15 6.15,6.15"/>
        <polygon transform="translate(228,0)" points="8,0 9.85,6.15 16,6.15 11.08,9.85 12.92,16 8,12.31 3.08,16 4.92,9.85 0,6.15 6.15,6.15"/>
        <polygon transform="translate(266,0)" points="8,0 9.85,6.15 16,6.15 11.08,9.85 12.92,16 8,12.31 3.08,16 4.92,9.85 0,6.15 6.15,6.15"/>
      </g>
      <g transform="translate(19,115.38)">
        <polygon points="8,0 9.85,6.15 16,6.15 11.08,9.85 12.92,16 8,12.31 3.08,16 4.92,9.85 0,6.15 6.15,6.15"/>
        <polygon transform="translate(38,0)" points="8,0 9.85,6.15 16,6.15 11.08,9.85 12.92,16 8,12.31 3.08,16 4.92,9.85 0,6.15 6.15,6.15"/>
        <polygon transform="translate(76,0)" points="8,0 9.85,6.15 16,6.15 11.08,9.85 12.92,16 8,12.31 3.08,16 4.92,9.85 0,6.15 6.15,6.15"/>
        <polygon transform="translate(114,0)" points="8,0 9.85,6.15 16,6.15 11.08,9.85 12.92,16 8,12.31 3.08,16 4.92,9.85 0,6.15 6.15,6.15"/>
        <polygon transform="translate(152,0)" points="8,0 9.85,6.15 16,6.15 11.08,9.85 12.92,16 8,12.31 3.08,16 4.92,9.85 0,6.15 6.15,6.15"/>
        <polygon transform="translate(190,0)" points="8,0 9.85,6.15 16,6.15 11.08,9.85 12.92,16 8,12.31 3.08,16 4.92,9.85 0,6.15 6.15,6.15"/>
        <polygon transform="translate(228,0)" points="8,0 9.85,6.15 16,6.15 11.08,9.85 12.92,16 8,12.31 3.08,16 4.92,9.85 0,6.15 6.15,6.15"/>
      </g>
      <g transform="translate(0,138.46)">
        <polygon points="8,0 9.85,6.15 16,6.15 11.08,9.85 12.92,16 8,12.31 3.08,16 4.92,9.85 0,6.15 6.15,6.15"/>
        <polygon transform="translate(38,0)" points="8,0 9.85,6.15 16,6.15 11.08,9.85 12.92,16 8,12.31 3.08,16 4.92,9.85 0,6.15 6.15,6.15"/>
        <polygon transform="translate(76,0)" points="8,0 9.85,6.15 16,6.15 11.08,9.85 12.92,16 8,12.31 3.08,16 4.92,9.85 0,6.15 6.15,6.15"/>
        <polygon transform="translate(114,0)" points="8,0 9.85,6.15 16,6.15 11.08,9.85 12.92,16 8,12.31 3.08,16 4.92,9.85 0,6.15 6.15,6.15"/>
        <polygon transform="translate(152,0)" points="8,0 9.85,6.15 16,6.15 11.08,9.85 12.92,16 8,12.31 3.08,16 4.92,9.85 0,6.15 6.15,6.15"/>
        <polygon transform="translate(190,0)" points="8,0 9.85,6.15 16,6.15 11.08,9.85 12.92,16 8,12.31 3.08,16 4.92,9.85 0,6.15 6.15,6.15"/>
        <polygon transform="translate(228,0)" points="8,0 9.85,6.15 16,6.15 11.08,9.85 12.92,16 8,12.31 3.08,16 4.92,9.85 0,6.15 6.15,6.15"/>
        <polygon transform="translate(266,0)" points="8,0 9.85,6.15 16,6.15 11.08,9.85 12.92,16 8,12.31 3.08,16 4.92,9.85 0,6.15 6.15,6.15"/>
      </g>
      <g transform="translate(19,161.54)">
        <polygon points="8,0 9.85,6.15 16,6.15 11.08,9.85 12.92,16 8,12.31 3.08,16 4.92,9.85 0,6.15 6.15,6.15"/>
        <polygon transform="translate(38,0)" points="8,0 9.85,6.15 16,6.15 11.08,9.85 12.92,16 8,12.31 3.08,16 4.92,9.85 0,6.15 6.15,6.15"/>
        <polygon transform="translate(76,0)" points="8,0 9.85,6.15 16,6.15 11.08,9.85 12.92,16 8,12.31 3.08,16 4.92,9.85 0,6.15 6.15,6.15"/>
        <polygon transform="translate(114,0)" points="8,0 9.85,6.15 16,6.15 11.08,9.85 12.92,16 8,12.31 3.08,16 4.92,9.85 0,6.15 6.15,6.15"/>
        <polygon transform="translate(152,0)" points="8,0 9.85,6.15 16,6.15 11.08,9.85 12.92,16 8,12.31 3.08,16 4.92,9.85 0,6.15 6.15,6.15"/>
        <polygon transform="translate(190,0)" points="8,0 9.85,6.15 16,6.15 11.08,9.85 12.92,16 8,12.31 3.08,16 4.92,9.85 0,6.15 6.15,6.15"/>
        <polygon transform="translate(228,0)" points="8,0 9.85,6.15 16,6.15 11.08,9.85 12.92,16 8,12.31 3.08,16 4.92,9.85 0,6.15 6.15,6.15"/>
      </g>
    </g>
  </g>
</svg>